<svg width="38" height="38" viewBox="0 0 38 38" fill="none" xmlns="http://www.w3.org/2000/svg">
<circle cx="19" cy="19" r="19" fill="#E9ECF2"/>
<g clip-path="url(#clip0)">
<path d="M19.0005 11.5C19.1542 11.5 19.3012 11.563 19.407 11.674L23.3445 15.799C23.6857 16.156 23.4322 16.75 22.938 16.75L20.8755 16.75L20.8755 21.0625C20.8755 21.5793 20.4547 22 19.938 22L18.063 22C17.5462 22 17.1255 21.5793 17.1255 21.0625L17.1255 16.75L15.063 16.75C14.5687 16.75 14.3152 16.156 14.6565 15.799L18.594 11.674C18.6997 11.563 18.8467 11.5 19.0005 11.5Z" fill="#3744BD"/>
<path d="M26.6875 26.5H11.3125C10.5888 26.5 10 25.9112 10 25.1875V24.8125C10 24.0887 10.5888 23.5 11.3125 23.5H26.6875C27.4112 23.5 28 24.0887 28 24.8125V25.1875C28 25.9112 27.4112 26.5 26.6875 26.5Z" fill="#3744BD"/>
</g>
<defs>
<clipPath id="clip0">
<rect width="18" height="18" fill="white" transform="translate(10 10)"/>
</clipPath>
</defs>
</svg>
